<svg version="1.2" xmlns="http://www.w3.org/2000/svg" viewBox="0 0 528 569" width="528" height="569">
	<style>
		.s0 { fill: #da8122;stroke: #da8122;paint-order:stroke fill markers;stroke-linejoin: round;stroke-width: 16 } 
	</style>
	<path id="Color Fill 2" class="s0" d="m8 557.57v-112c0 0 23.89-90.04 115.87-92.23-0.15 0.23 116.39-17.73 140.13 156.23 0 2.24 2.18-112.39 120.64-152.67 1.92-1.07 30.86-8.62 75.8-11.86 48.87-3.53 48.77-10.51 59.39-13.04-0.48 0.08 0.17 229.57 0.17 229.57h-508.02-3.98zm0-210.21l0.03-129.36 244-208c0.14-3.43 24.15-3.54 24 0l244 208v32c0 0-24.44 64.27-107.77 66.35-83.33 2.08-129.11-52.92-148.23-162.35 0 0.57-20.51 138.72-100 156-19.35 5.45-22.78 4.11-74.99 13.45 0.4-0.78-80.65 18.78-81.04 23.91z"/>
</svg>